# xmcd
#
# Track frame offsets:
#	150
#	20962
#	34174
#	51107
#	67350
#	82215
#	101608
#	118089
#	129671
#	145096
#	158254
#	173726
#	188415
#	204555
#	221003
#	234623
#	250274
#	265119
#	281321
#	296617
#
# Disc length: 4237 seconds
#
# Revision: 0
# Processed by: cddbd v1.5.2PL0 Copyright (c) Steve Scherf et al.
# Submitted via: EasyCDDAExtractor 16.0.9.1
#
DISCID=2d108b14
DTITLE=Various Artist - Toyota Star Maker: 40 Years - 1979 To 2019
DYEAR=2019
DGENRE=Country
TTITLE0=Grant Richardson - Hughie
TTITLE1=Kylie Sackley - Love's Like A Train
TTITLE2=Kieran Lancini - A Matter Of Time
TTITLE3=Todd Williams - Only A Fool Breaks His Own Heart
TTITLE4=Travis Collins - Barbed Wire and Roses 
TTITLE5=Samantha McClymont - Heart Of A Man
TTITLE6=Cat Southern - Last First Kiss
TTITLE7=Kirsty Lee Akers - Little Things
TTITLE8=Talia Wittmann - Reckless Side Of Me
TTITLE9=Liam Brew - Doghouse
TTITLE10=Luke Austen - Two Miles Down
TTITLE11=Luke Dickens - True Love Never Dies
TTITLE12=Bob Corbett - Cracker Night
TTITLE13=Kaylee Bell - Heart First
TTITLE14=Jared Porter - Deep End
TTITLE15=Mickey Pye - When She's Drinkin'
TTITLE16=Karin Page - Still Got You
TTITLE17=Rachael Fahim - Brake Lights
TTITLE18=Brad Cox - Too Drunk To Drive
TTITLE19=Travis Collins, Luke Austen, Luke Dickens and Liam Brew - Turn The Page
TTITLE19=(Bonus Track)
EXTD=
EXTT0=
EXTT1=
EXTT2=
EXTT3=
EXTT4=
EXTT5=
EXTT6=
EXTT7=
EXTT8=
EXTT9=
EXTT10=
EXTT11=
EXTT12=
EXTT13=
EXTT14=
EXTT15=
EXTT16=
EXTT17=
EXTT18=
EXTT19=
PLAYORDER=
